<?xml version="1.0" ?><!DOCTYPE svg  PUBLIC '-//W3C//DTD SVG 1.1//EN'  'http://www.w3.org/Graphics/SVG/1.1/DTD/svg11.dtd'><svg height="293.000" viewBox="-194.000 -13.000 308.000 293.000" width="308.000" xmlns="http://www.w3.org/2000/svg"><line fill="none" stroke="none" stroke-linecap="round" stroke-width="2.0" x1="0.0" x2="0.0" y1="0.0" y2="0.0"/><polygon fill="none" fill-rule="evenodd" points="0.0,0.0 0.0,0.0 0.0,0.0" stroke-linejoin="round"/><polyline fill="none" points="0.0,0.0 5.0,0.0 7.5,4.33012701892 2.5,4.33012701892 8.881784197e-16,8.66025403784 5.0,8.66025403784 10.0,8.66025403784 12.5,4.33012701892 17.5,4.33012701892 20.0,8.66025403784 22.5,12.9903810568 17.5,12.9903810568 15.0,8.66025403784 12.5,12.9903810568 15.0,17.3205080757 12.5,21.6506350946 7.5,21.6506350946 2.5,21.6506350946 5.0,17.3205080757 10.0,17.3205080757 7.5,12.9903810568 2.5,12.9903810568 -3.5527136788e-15,17.3205080757 -5.0,17.3205080757 -2.5,12.9903810568 -5.0,8.66025403784 -7.5,12.9903810568 -10.0,17.3205080757 -7.5,21.6506350946 -2.5,21.6506350946 -2.22044604925e-15,25.9807621135 -5.0,25.9807621135 -7.5,30.3108891325 -2.5,30.3108891325 2.5,30.3108891325 5.0,25.9807621135 10.0,25.9807621135 12.5,30.3108891325 7.5,30.3108891325 5.0,34.6410161514 10.0,34.6410161514 15.0,34.6410161514 17.5,30.3108891325" stroke="#000" stroke-linecap="round" stroke-linejoin="round"/><polyline fill="none" points="17.5,30.3108891325 15.0,25.9807621135 17.5,21.6506350946 20.0,17.3205080757 22.5,21.6506350946 20.0,25.9807621135 25.0,25.9807621135 27.5,21.6506350946 32.5,21.6506350946 35.0,25.9807621135 30.0,25.9807621135 27.5,30.3108891325 32.5,30.3108891325 37.5,30.3108891325 40.0,25.9807621135 45.0,25.9807621135 47.5,30.3108891325 50.0,34.6410161514 45.0,34.6410161514 42.5,30.3108891325 40.0,34.6410161514 42.5,38.9711431703 47.5,38.9711431703 50.0,43.3012701892 52.5,47.6313972081 47.5,47.6313972081 45.0,43.3012701892 42.5,47.6313972081 45.0,51.9615242271 42.5,56.291651246 37.5,56.291651246 32.5,56.291651246 35.0,51.9615242271 40.0,51.9615242271 37.5,47.6313972081 32.5,47.6313972081 30.0,43.3012701892 32.5,38.9711431703 35.0,43.3012701892 40.0,43.3012701892 37.5,38.9711431703 35.0,34.6410161514 30.0,34.6410161514" stroke="#000" stroke-linecap="round" stroke-linejoin="round"/><polyline fill="none" points="30.0,34.6410161514 27.5,38.9711431703 22.5,38.9711431703 25.0,34.6410161514 22.5,30.3108891325 20.0,34.6410161514 17.5,38.9711431703 20.0,43.3012701892 25.0,43.3012701892 27.5,47.6313972081 30.0,51.9615242271 25.0,51.9615242271 22.5,47.6313972081 20.0,51.9615242271 22.5,56.291651246 20.0,60.6217782649 15.0,60.6217782649 17.5,56.291651246 15.0,51.9615242271 12.5,56.291651246 10.0,60.6217782649 12.5,64.9519052838 10.0,69.2820323028 5.0,69.2820323028 -2.13162820728e-14,69.2820323028 2.5,64.9519052838 7.5,64.9519052838 5.0,60.6217782649 -2.93098878501e-14,60.6217782649 -2.5,64.9519052838 -7.5,64.9519052838 -12.5,64.9519052838 -10.0,60.6217782649 -5.0,60.6217782649 -7.5,56.291651246 -12.5,56.291651246 -15.0,51.9615242271 -12.5,47.6313972081 -10.0,43.3012701892 -7.5,47.6313972081 -10.0,51.9615242271 -5.0,51.9615242271 -2.5,47.6313972081" stroke="#000" stroke-linecap="round" stroke-linejoin="round"/><polyline fill="none" points="-2.5,47.6313972081 2.5,47.6313972081 5.0,51.9615242271 -3.19744231092e-14,51.9615242271 -2.5,56.291651246 2.5,56.291651246 7.5,56.291651246 10.0,51.9615242271 7.5,47.6313972081 10.0,43.3012701892 12.5,47.6313972081 17.5,47.6313972081 15.0,43.3012701892 12.5,38.9711431703 7.5,38.9711431703 5.0,43.3012701892 -3.46389583683e-14,43.3012701892 -5.0,43.3012701892 -2.5,38.9711431703 2.5,38.9711431703 -4.21884749358e-14,34.6410161514 -5.0,34.6410161514 -7.5,38.9711431703 -12.5,38.9711431703 -10.0,34.6410161514 -12.5,30.3108891325 -15.0,34.6410161514 -17.5,38.9711431703 -15.0,43.3012701892 -17.5,47.6313972081 -22.5,47.6313972081 -27.5,47.6313972081 -25.0,43.3012701892 -20.0,43.3012701892 -22.5,38.9711431703 -27.5,38.9711431703 -30.0,34.6410161514 -27.5,30.3108891325 -25.0,25.9807621135 -22.5,30.3108891325 -25.0,34.6410161514 -20.0,34.6410161514 -17.5,30.3108891325" stroke="#000" stroke-linecap="round" stroke-linejoin="round"/><polyline fill="none" points="-17.5,30.3108891325 -20.0,25.9807621135 -17.5,21.6506350946 -15.0,25.9807621135 -10.0,25.9807621135 -12.5,21.6506350946 -15.0,17.3205080757 -20.0,17.3205080757 -22.5,21.6506350946 -27.5,21.6506350946 -25.0,17.3205080757 -27.5,12.9903810568 -30.0,17.3205080757 -32.5,21.6506350946 -30.0,25.9807621135 -32.5,30.3108891325 -37.5,30.3108891325 -35.0,25.9807621135 -37.5,21.6506350946 -40.0,25.9807621135 -42.5,30.3108891325 -40.0,34.6410161514 -35.0,34.6410161514 -32.5,38.9711431703 -30.0,43.3012701892 -35.0,43.3012701892 -37.5,38.9711431703 -40.0,43.3012701892 -37.5,47.6313972081 -32.5,47.6313972081 -30.0,51.9615242271 -35.0,51.9615242271 -37.5,56.291651246 -32.5,56.291651246 -27.5,56.291651246 -25.0,51.9615242271 -20.0,51.9615242271 -17.5,56.291651246 -15.0,60.6217782649 -20.0,60.6217782649 -22.5,56.291651246 -25.0,60.6217782649 -22.5,64.9519052838" stroke="#000" stroke-linecap="round" stroke-linejoin="round"/><polyline fill="none" points="-22.5,64.9519052838 -25.0,69.2820323028 -30.0,69.2820323028 -35.0,69.2820323028 -32.5,64.9519052838 -27.5,64.9519052838 -30.0,60.6217782649 -35.0,60.6217782649 -37.5,64.9519052838 -42.5,64.9519052838 -40.0,60.6217782649 -42.5,56.291651246 -45.0,60.6217782649 -47.5,64.9519052838 -45.0,69.2820323028 -40.0,69.2820323028 -37.5,73.6121593217 -42.5,73.6121593217 -45.0,77.9422863406 -40.0,77.9422863406 -35.0,77.9422863406 -32.5,73.6121593217 -27.5,73.6121593217 -25.0,77.9422863406 -30.0,77.9422863406 -32.5,82.2724133595 -27.5,82.2724133595 -22.5,82.2724133595 -20.0,77.9422863406 -22.5,73.6121593217 -20.0,69.2820323028 -17.5,64.9519052838 -15.0,69.2820323028 -17.5,73.6121593217 -12.5,73.6121593217 -10.0,69.2820323028 -5.0,69.2820323028 -2.5,73.6121593217 -7.5,73.6121593217 -10.0,77.9422863406 -5.0,77.9422863406 -8.52651282912e-14,77.9422863406 2.5,73.6121593217" stroke="#000" stroke-linecap="round" stroke-linejoin="round"/><polyline fill="none" points="2.5,73.6121593217 7.5,73.6121593217 10.0,77.9422863406 12.5,82.2724133595 7.5,82.2724133595 5.0,77.9422863406 2.5,82.2724133595 5.0,86.6025403784 2.5,90.9326673974 -2.5,90.9326673974 -7.5,90.9326673974 -5.0,86.6025403784 -8.52651282912e-14,86.6025403784 -2.5,82.2724133595 -7.5,82.2724133595 -10.0,86.6025403784 -15.0,86.6025403784 -12.5,82.2724133595 -15.0,77.9422863406 -17.5,82.2724133595 -20.0,86.6025403784 -17.5,90.9326673974 -12.5,90.9326673974 -10.0,95.2627944163 -15.0,95.2627944163 -17.5,99.5929214352 -12.5,99.5929214352 -7.5,99.5929214352 -5.0,95.2627944163 -8.61533067109e-14,95.2627944163 2.5,99.5929214352 -2.5,99.5929214352 -5.0,103.923048454 -8.34887714518e-14,103.923048454 5.0,103.923048454 7.5,99.5929214352 5.0,95.2627944163 7.5,90.9326673974 10.0,86.6025403784 12.5,90.9326673974 10.0,95.2627944163 15.0,95.2627944163 17.5,90.9326673974" stroke="#000" stroke-linecap="round" stroke-linejoin="round"/><polyline fill="none" points="17.5,90.9326673974 15.0,86.6025403784 17.5,82.2724133595 20.0,86.6025403784 25.0,86.6025403784 22.5,82.2724133595 20.0,77.9422863406 15.0,77.9422863406 12.5,73.6121593217 15.0,69.2820323028 17.5,64.9519052838 20.0,69.2820323028 17.5,73.6121593217 22.5,73.6121593217 25.0,69.2820323028 22.5,64.9519052838 25.0,60.6217782649 27.5,56.291651246 30.0,60.6217782649 27.5,64.9519052838 32.5,64.9519052838 35.0,60.6217782649 40.0,60.6217782649 42.5,64.9519052838 45.0,69.2820323028 40.0,69.2820323028 37.5,64.9519052838 35.0,69.2820323028 37.5,73.6121593217 35.0,77.9422863406 30.0,77.9422863406 32.5,73.6121593217 30.0,69.2820323028 27.5,73.6121593217 25.0,77.9422863406 27.5,82.2724133595 32.5,82.2724133595 35.0,86.6025403784 30.0,86.6025403784 27.5,90.9326673974 32.5,90.9326673974 37.5,90.9326673974 40.0,86.6025403784" stroke="#000" stroke-linecap="round" stroke-linejoin="round"/><polyline fill="none" points="40.0,86.6025403784 37.5,82.2724133595 40.0,77.9422863406 42.5,73.6121593217 45.0,77.9422863406 42.5,82.2724133595 47.5,82.2724133595 50.0,77.9422863406 55.0,77.9422863406 57.5,82.2724133595 52.5,82.2724133595 50.0,86.6025403784 55.0,86.6025403784 60.0,86.6025403784 62.5,82.2724133595 67.5,82.2724133595 70.0,86.6025403784 72.5,90.9326673974 67.5,90.9326673974 65.0,86.6025403784 62.5,90.9326673974 65.0,95.2627944163 62.5,99.5929214352 57.5,99.5929214352 52.5,99.5929214352 55.0,95.2627944163 60.0,95.2627944163 57.5,90.9326673974 52.5,90.9326673974 50.0,95.2627944163 45.0,95.2627944163 47.5,90.9326673974 45.0,86.6025403784 42.5,90.9326673974 40.0,95.2627944163 42.5,99.5929214352 47.5,99.5929214352 50.0,103.923048454 45.0,103.923048454 42.5,108.253175473 47.5,108.253175473 52.5,108.253175473 55.0,103.923048454" stroke="#000" stroke-linecap="round" stroke-linejoin="round"/><polyline fill="none" points="55.0,103.923048454 60.0,103.923048454 62.5,108.253175473 57.5,108.253175473 55.0,112.583302492 60.0,112.583302492 65.0,112.583302492 67.5,108.253175473 65.0,103.923048454 67.5,99.5929214352 70.0,95.2627944163 72.5,99.5929214352 70.0,103.923048454 75.0,103.923048454 77.5,99.5929214352 82.5,99.5929214352 85.0,103.923048454 80.0,103.923048454 77.5,108.253175473 82.5,108.253175473 87.5,108.253175473 90.0,103.923048454 95.0,103.923048454 97.5,108.253175473 100.0,112.583302492 95.0,112.583302492 92.5,108.253175473 90.0,112.583302492 92.5,116.913429511 97.5,116.913429511 100.0,121.24355653 102.5,125.573683549 97.5,125.573683549 95.0,121.24355653 92.5,125.573683549 95.0,129.903810568 92.5,134.233937587 87.5,134.233937587 82.5,134.233937587 85.0,129.903810568 90.0,129.903810568 87.5,125.573683549 82.5,125.573683549" stroke="#000" stroke-linecap="round" stroke-linejoin="round"/><polyline fill="none" points="82.5,125.573683549 80.0,121.24355653 82.5,116.913429511 85.0,121.24355653 90.0,121.24355653 87.5,116.913429511 85.0,112.583302492 80.0,112.583302492 77.5,116.913429511 72.5,116.913429511 75.0,112.583302492 72.5,108.253175473 70.0,112.583302492 67.5,116.913429511 70.0,121.24355653 75.0,121.24355653 77.5,125.573683549 80.0,129.903810568 75.0,129.903810568 72.5,125.573683549 70.0,129.903810568 72.5,134.233937587 77.5,134.233937587 80.0,138.564064606 75.0,138.564064606 72.5,142.894191624 77.5,142.894191624 82.5,142.894191624 85.0,138.564064606 90.0,138.564064606 92.5,142.894191624 95.0,147.224318643 90.0,147.224318643 87.5,142.894191624 85.0,147.224318643 87.5,151.554445662 92.5,151.554445662 95.0,155.884572681 97.5,160.2146997 92.5,160.2146997 90.0,155.884572681 87.5,160.2146997 90.0,164.544826719" stroke="#000" stroke-linecap="round" stroke-linejoin="round"/><polyline fill="none" points="90.0,164.544826719 87.5,168.874953738 82.5,168.874953738 77.5,168.874953738 80.0,164.544826719 85.0,164.544826719 82.5,160.2146997 77.5,160.2146997 75.0,155.884572681 77.5,151.554445662 80.0,155.884572681 85.0,155.884572681 82.5,151.554445662 80.0,147.224318643 75.0,147.224318643 72.5,151.554445662 67.5,151.554445662 70.0,147.224318643 67.5,142.894191624 65.0,147.224318643 62.5,151.554445662 65.0,155.884572681 70.0,155.884572681 72.5,160.2146997 75.0,164.544826719 70.0,164.544826719 67.5,160.2146997 65.0,164.544826719 67.5,168.874953738 65.0,173.205080757 60.0,173.205080757 62.5,168.874953738 60.0,164.544826719 57.5,168.874953738 55.0,173.205080757 57.5,177.535207776 55.0,181.865334795 50.0,181.865334795 45.0,181.865334795 47.5,177.535207776 52.5,177.535207776 50.0,173.205080757 45.0,173.205080757" stroke="#000" stroke-linecap="round" stroke-linejoin="round"/><polyline fill="none" points="45.0,173.205080757 42.5,177.535207776 37.5,177.535207776 32.5,177.535207776 35.0,173.205080757 40.0,173.205080757 37.5,168.874953738 32.5,168.874953738 30.0,164.544826719 32.5,160.2146997 35.0,155.884572681 37.5,160.2146997 35.0,164.544826719 40.0,164.544826719 42.5,160.2146997 47.5,160.2146997 50.0,164.544826719 45.0,164.544826719 42.5,168.874953738 47.5,168.874953738 52.5,168.874953738 55.0,164.544826719 52.5,160.2146997 55.0,155.884572681 57.5,160.2146997 62.5,160.2146997 60.0,155.884572681 57.5,151.554445662 52.5,151.554445662 50.0,155.884572681 45.0,155.884572681 40.0,155.884572681 42.5,151.554445662 47.5,151.554445662 45.0,147.224318643 40.0,147.224318643 37.5,142.894191624 40.0,138.564064606 42.5,142.894191624 47.5,142.894191624 45.0,138.564064606 42.5,134.233937587 37.5,134.233937587" stroke="#000" stroke-linecap="round" stroke-linejoin="round"/><polyline fill="none" points="37.5,134.233937587 35.0,129.903810568 37.5,125.573683549 40.0,121.24355653 42.5,125.573683549 40.0,129.903810568 45.0,129.903810568 47.5,125.573683549 52.5,125.573683549 55.0,129.903810568 57.5,134.233937587 52.5,134.233937587 50.0,129.903810568 47.5,134.233937587 50.0,138.564064606 55.0,138.564064606 57.5,142.894191624 52.5,142.894191624 50.0,147.224318643 55.0,147.224318643 60.0,147.224318643 62.5,142.894191624 60.0,138.564064606 62.5,134.233937587 65.0,138.564064606 70.0,138.564064606 67.5,134.233937587 65.0,129.903810568 60.0,129.903810568 57.5,125.573683549 60.0,121.24355653 62.5,125.573683549 67.5,125.573683549 65.0,121.24355653 62.5,116.913429511 57.5,116.913429511 55.0,121.24355653 50.0,121.24355653 45.0,121.24355653 47.5,116.913429511 52.5,116.913429511 50.0,112.583302492 45.0,112.583302492" stroke="#000" stroke-linecap="round" stroke-linejoin="round"/><polyline fill="none" points="45.0,112.583302492 42.5,116.913429511 37.5,116.913429511 40.0,112.583302492 37.5,108.253175473 35.0,112.583302492 32.5,116.913429511 35.0,121.24355653 32.5,125.573683549 27.5,125.573683549 22.5,125.573683549 25.0,121.24355653 30.0,121.24355653 27.5,116.913429511 22.5,116.913429511 20.0,112.583302492 22.5,108.253175473 25.0,103.923048454 27.5,108.253175473 25.0,112.583302492 30.0,112.583302492 32.5,108.253175473 30.0,103.923048454 32.5,99.5929214352 35.0,103.923048454 40.0,103.923048454 37.5,99.5929214352 35.0,95.2627944163 30.0,95.2627944163 27.5,99.5929214352 22.5,99.5929214352 25.0,95.2627944163 22.5,90.9326673974 20.0,95.2627944163 17.5,99.5929214352 20.0,103.923048454 17.5,108.253175473 12.5,108.253175473 15.0,103.923048454 12.5,99.5929214352 10.0,103.923048454 7.5,108.253175473 10.0,112.583302492" stroke="#000" stroke-linecap="round" stroke-linejoin="round"/><polyline fill="none" points="10.0,112.583302492 15.0,112.583302492 17.5,116.913429511 20.0,121.24355653 15.0,121.24355653 12.5,116.913429511 10.0,121.24355653 12.5,125.573683549 17.5,125.573683549 20.0,129.903810568 15.0,129.903810568 12.5,134.233937587 17.5,134.233937587 22.5,134.233937587 25.0,129.903810568 30.0,129.903810568 32.5,134.233937587 35.0,138.564064606 30.0,138.564064606 27.5,134.233937587 25.0,138.564064606 27.5,142.894191624 32.5,142.894191624 35.0,147.224318643 37.5,151.554445662 32.5,151.554445662 30.0,147.224318643 27.5,151.554445662 30.0,155.884572681 27.5,160.2146997 22.5,160.2146997 17.5,160.2146997 20.0,155.884572681 25.0,155.884572681 22.5,151.554445662 17.5,151.554445662 15.0,147.224318643 17.5,142.894191624 20.0,147.224318643 25.0,147.224318643 22.5,142.894191624 20.0,138.564064606 15.0,138.564064606" stroke="#000" stroke-linecap="round" stroke-linejoin="round"/><polyline fill="none" points="15.0,138.564064606 12.5,142.894191624 7.5,142.894191624 10.0,138.564064606 7.5,134.233937587 5.0,138.564064606 2.5,142.894191624 5.0,147.224318643 10.0,147.224318643 12.5,151.554445662 15.0,155.884572681 10.0,155.884572681 7.5,151.554445662 5.0,155.884572681 7.5,160.2146997 5.0,164.544826719 -1.46549439251e-13,164.544826719 2.5,160.2146997 -1.54098955818e-13,155.884572681 -2.5,160.2146997 -5.0,164.544826719 -2.5,168.874953738 -5.0,173.205080757 -10.0,173.205080757 -15.0,173.205080757 -12.5,168.874953738 -7.5,168.874953738 -10.0,164.544826719 -15.0,164.544826719 -17.5,160.2146997 -15.0,155.884572681 -12.5,151.554445662 -10.0,155.884572681 -12.5,160.2146997 -7.5,160.2146997 -5.0,155.884572681 -7.5,151.554445662 -5.0,147.224318643 -2.5,151.554445662 2.5,151.554445662 -1.66533453694e-13,147.224318643 -2.5,142.894191624 -7.5,142.894191624" stroke="#000" stroke-linecap="round" stroke-linejoin="round"/><polyline fill="none" points="-7.5,142.894191624 -10.0,147.224318643 -15.0,147.224318643 -12.5,142.894191624 -15.0,138.564064606 -17.5,142.894191624 -20.0,147.224318643 -17.5,151.554445662 -20.0,155.884572681 -25.0,155.884572681 -22.5,151.554445662 -25.0,147.224318643 -27.5,151.554445662 -30.0,155.884572681 -27.5,160.2146997 -22.5,160.2146997 -20.0,164.544826719 -17.5,168.874953738 -22.5,168.874953738 -25.0,164.544826719 -27.5,168.874953738 -25.0,173.205080757 -27.5,177.535207776 -32.5,177.535207776 -30.0,173.205080757 -32.5,168.874953738 -35.0,173.205080757 -37.5,177.535207776 -35.0,181.865334795 -37.5,186.195461814 -42.5,186.195461814 -47.5,186.195461814 -45.0,181.865334795 -40.0,181.865334795 -42.5,177.535207776 -47.5,177.535207776 -50.0,181.865334795 -55.0,181.865334795 -60.0,181.865334795 -57.5,177.535207776 -52.5,177.535207776 -55.0,173.205080757 -60.0,173.205080757" stroke="#000" stroke-linecap="round" stroke-linejoin="round"/><polyline fill="none" points="-60.0,173.205080757 -62.5,168.874953738 -60.0,164.544826719 -57.5,160.2146997 -55.0,164.544826719 -57.5,168.874953738 -52.5,168.874953738 -50.0,164.544826719 -45.0,164.544826719 -42.5,168.874953738 -47.5,168.874953738 -50.0,173.205080757 -45.0,173.205080757 -40.0,173.205080757 -37.5,168.874953738 -40.0,164.544826719 -37.5,160.2146997 -35.0,164.544826719 -30.0,164.544826719 -32.5,160.2146997 -35.0,155.884572681 -40.0,155.884572681 -42.5,160.2146997 -47.5,160.2146997 -52.5,160.2146997 -50.0,155.884572681 -45.0,155.884572681 -47.5,151.554445662 -52.5,151.554445662 -55.0,155.884572681 -60.0,155.884572681 -57.5,151.554445662 -60.0,147.224318643 -62.5,151.554445662 -65.0,155.884572681 -62.5,160.2146997 -65.0,164.544826719 -70.0,164.544826719 -75.0,164.544826719 -72.5,160.2146997 -67.5,160.2146997 -70.0,155.884572681 -75.0,155.884572681" stroke="#000" stroke-linecap="round" stroke-linejoin="round"/><polyline fill="none" points="-75.0,155.884572681 -77.5,160.2146997 -82.5,160.2146997 -87.5,160.2146997 -85.0,155.884572681 -80.0,155.884572681 -82.5,151.554445662 -87.5,151.554445662 -90.0,147.224318643 -87.5,142.894191624 -85.0,138.564064606 -82.5,142.894191624 -85.0,147.224318643 -80.0,147.224318643 -77.5,142.894191624 -72.5,142.894191624 -70.0,147.224318643 -75.0,147.224318643 -77.5,151.554445662 -72.5,151.554445662 -67.5,151.554445662 -65.0,147.224318643 -67.5,142.894191624 -65.0,138.564064606 -62.5,142.894191624 -57.5,142.894191624 -60.0,138.564064606 -62.5,134.233937587 -67.5,134.233937587 -70.0,138.564064606 -75.0,138.564064606 -80.0,138.564064606 -77.5,134.233937587 -72.5,134.233937587 -75.0,129.903810568 -80.0,129.903810568 -82.5,125.573683549 -80.0,121.24355653 -77.5,125.573683549 -72.5,125.573683549 -75.0,121.24355653 -77.5,116.913429511 -82.5,116.913429511" stroke="#000" stroke-linecap="round" stroke-linejoin="round"/><polyline fill="none" points="-82.5,116.913429511 -85.0,112.583302492 -82.5,108.253175473 -80.0,103.923048454 -77.5,108.253175473 -80.0,112.583302492 -75.0,112.583302492 -72.5,108.253175473 -75.0,103.923048454 -72.5,99.5929214352 -70.0,95.2627944163 -67.5,99.5929214352 -70.0,103.923048454 -65.0,103.923048454 -62.5,99.5929214352 -57.5,99.5929214352 -55.0,103.923048454 -52.5,108.253175473 -57.5,108.253175473 -60.0,103.923048454 -62.5,108.253175473 -60.0,112.583302492 -62.5,116.913429511 -67.5,116.913429511 -65.0,112.583302492 -67.5,108.253175473 -70.0,112.583302492 -72.5,116.913429511 -70.0,121.24355653 -65.0,121.24355653 -62.5,125.573683549 -67.5,125.573683549 -70.0,129.903810568 -65.0,129.903810568 -60.0,129.903810568 -57.5,125.573683549 -60.0,121.24355653 -57.5,116.913429511 -55.0,112.583302492 -52.5,116.913429511 -55.0,121.24355653 -50.0,121.24355653 -47.5,116.913429511" stroke="#000" stroke-linecap="round" stroke-linejoin="round"/><polyline fill="none" points="-47.5,116.913429511 -42.5,116.913429511 -40.0,121.24355653 -45.0,121.24355653 -47.5,125.573683549 -42.5,125.573683549 -37.5,125.573683549 -35.0,121.24355653 -30.0,121.24355653 -27.5,125.573683549 -25.0,129.903810568 -30.0,129.903810568 -32.5,125.573683549 -35.0,129.903810568 -32.5,134.233937587 -35.0,138.564064606 -40.0,138.564064606 -45.0,138.564064606 -42.5,134.233937587 -37.5,134.233937587 -40.0,129.903810568 -45.0,129.903810568 -47.5,134.233937587 -52.5,134.233937587 -50.0,129.903810568 -52.5,125.573683549 -55.0,129.903810568 -57.5,134.233937587 -55.0,138.564064606 -50.0,138.564064606 -47.5,142.894191624 -52.5,142.894191624 -55.0,147.224318643 -50.0,147.224318643 -45.0,147.224318643 -42.5,142.894191624 -37.5,142.894191624 -35.0,147.224318643 -40.0,147.224318643 -42.5,151.554445662 -37.5,151.554445662 -32.5,151.554445662 -30.0,147.224318643" stroke="#000" stroke-linecap="round" stroke-linejoin="round"/><polyline fill="none" points="-30.0,147.224318643 -32.5,142.894191624 -30.0,138.564064606 -27.5,134.233937587 -25.0,138.564064606 -27.5,142.894191624 -22.5,142.894191624 -20.0,138.564064606 -22.5,134.233937587 -20.0,129.903810568 -17.5,134.233937587 -12.5,134.233937587 -15.0,129.903810568 -17.5,125.573683549 -22.5,125.573683549 -25.0,121.24355653 -22.5,116.913429511 -20.0,112.583302492 -17.5,116.913429511 -20.0,121.24355653 -15.0,121.24355653 -12.5,116.913429511 -7.5,116.913429511 -5.0,121.24355653 -2.5,125.573683549 -7.5,125.573683549 -10.0,121.24355653 -12.5,125.573683549 -10.0,129.903810568 -5.0,129.903810568 -2.5,134.233937587 -7.5,134.233937587 -10.0,138.564064606 -5.0,138.564064606 -1.42108547152e-13,138.564064606 2.5,134.233937587 -1.54543045028e-13,129.903810568 2.5,125.573683549 5.0,129.903810568 10.0,129.903810568 7.5,125.573683549 5.0,121.24355653 -1.65201186064e-13,121.24355653" stroke="#000" stroke-linecap="round" stroke-linejoin="round"/><polyline fill="none" points="-1.65201186064e-13,121.24355653 -2.5,116.913429511 -1.7852386236e-13,112.583302492 2.5,116.913429511 7.5,116.913429511 5.0,112.583302492 2.5,108.253175473 -2.5,108.253175473 -5.0,112.583302492 -10.0,112.583302492 -15.0,112.583302492 -12.5,108.253175473 -7.5,108.253175473 -10.0,103.923048454 -15.0,103.923048454 -17.5,108.253175473 -22.5,108.253175473 -20.0,103.923048454 -22.5,99.5929214352 -25.0,103.923048454 -27.5,108.253175473 -25.0,112.583302492 -27.5,116.913429511 -32.5,116.913429511 -37.5,116.913429511 -35.0,112.583302492 -30.0,112.583302492 -32.5,108.253175473 -37.5,108.253175473 -40.0,112.583302492 -45.0,112.583302492 -50.0,112.583302492 -47.5,108.253175473 -42.5,108.253175473 -45.0,103.923048454 -50.0,103.923048454 -52.5,99.5929214352 -50.0,95.2627944163 -47.5,90.9326673974 -45.0,95.2627944163 -47.5,99.5929214352 -42.5,99.5929214352 -40.0,95.2627944163" stroke="#000" stroke-linecap="round" stroke-linejoin="round"/><polyline fill="none" points="-40.0,95.2627944163 -35.0,95.2627944163 -32.5,99.5929214352 -37.5,99.5929214352 -40.0,103.923048454 -35.0,103.923048454 -30.0,103.923048454 -27.5,99.5929214352 -30.0,95.2627944163 -27.5,90.9326673974 -25.0,95.2627944163 -20.0,95.2627944163 -22.5,90.9326673974 -25.0,86.6025403784 -30.0,86.6025403784 -32.5,90.9326673974 -37.5,90.9326673974 -42.5,90.9326673974 -40.0,86.6025403784 -35.0,86.6025403784 -37.5,82.2724133595 -42.5,82.2724133595 -45.0,86.6025403784 -50.0,86.6025403784 -47.5,82.2724133595 -50.0,77.9422863406 -52.5,82.2724133595 -55.0,86.6025403784 -52.5,90.9326673974 -55.0,95.2627944163 -60.0,95.2627944163 -65.0,95.2627944163 -62.5,90.9326673974 -57.5,90.9326673974 -60.0,86.6025403784 -65.0,86.6025403784 -67.5,82.2724133595 -65.0,77.9422863406 -62.5,73.6121593217 -60.0,77.9422863406 -62.5,82.2724133595 -57.5,82.2724133595 -55.0,77.9422863406" stroke="#000" stroke-linecap="round" stroke-linejoin="round"/><polyline fill="none" points="-55.0,77.9422863406 -57.5,73.6121593217 -55.0,69.2820323028 -52.5,73.6121593217 -47.5,73.6121593217 -50.0,69.2820323028 -52.5,64.9519052838 -57.5,64.9519052838 -60.0,69.2820323028 -65.0,69.2820323028 -62.5,64.9519052838 -65.0,60.6217782649 -67.5,64.9519052838 -70.0,69.2820323028 -67.5,73.6121593217 -70.0,77.9422863406 -75.0,77.9422863406 -72.5,73.6121593217 -75.0,69.2820323028 -77.5,73.6121593217 -80.0,77.9422863406 -77.5,82.2724133595 -72.5,82.2724133595 -70.0,86.6025403784 -67.5,90.9326673974 -72.5,90.9326673974 -75.0,86.6025403784 -77.5,90.9326673974 -75.0,95.2627944163 -77.5,99.5929214352 -82.5,99.5929214352 -80.0,95.2627944163 -82.5,90.9326673974 -85.0,95.2627944163 -87.5,99.5929214352 -85.0,103.923048454 -87.5,108.253175473 -92.5,108.253175473 -97.5,108.253175473 -95.0,103.923048454 -90.0,103.923048454 -92.5,99.5929214352 -97.5,99.5929214352" stroke="#000" stroke-linecap="round" stroke-linejoin="round"/><polyline fill="none" points="-97.5,99.5929214352 -100.0,103.923048454 -105.0,103.923048454 -110.0,103.923048454 -107.5,99.5929214352 -102.5,99.5929214352 -105.0,95.2627944163 -110.0,95.2627944163 -112.5,90.9326673974 -110.0,86.6025403784 -107.5,82.2724133595 -105.0,86.6025403784 -107.5,90.9326673974 -102.5,90.9326673974 -100.0,86.6025403784 -95.0,86.6025403784 -92.5,90.9326673974 -97.5,90.9326673974 -100.0,95.2627944163 -95.0,95.2627944163 -90.0,95.2627944163 -87.5,90.9326673974 -90.0,86.6025403784 -87.5,82.2724133595 -85.0,86.6025403784 -80.0,86.6025403784 -82.5,82.2724133595 -85.0,77.9422863406 -90.0,77.9422863406 -92.5,82.2724133595 -97.5,82.2724133595 -102.5,82.2724133595 -100.0,77.9422863406 -95.0,77.9422863406 -97.5,73.6121593217 -102.5,73.6121593217 -105.0,69.2820323028 -102.5,64.9519052838 -100.0,69.2820323028 -95.0,69.2820323028 -97.5,64.9519052838 -100.0,60.6217782649 -105.0,60.6217782649" stroke="#000" stroke-linecap="round" stroke-linejoin="round"/><polyline fill="none" points="-105.0,60.6217782649 -107.5,56.291651246 -105.0,51.9615242271 -102.5,47.6313972081 -100.0,51.9615242271 -102.5,56.291651246 -97.5,56.291651246 -95.0,51.9615242271 -97.5,47.6313972081 -95.0,43.3012701892 -92.5,38.9711431703 -90.0,43.3012701892 -92.5,47.6313972081 -87.5,47.6313972081 -85.0,43.3012701892 -80.0,43.3012701892 -77.5,47.6313972081 -75.0,51.9615242271 -80.0,51.9615242271 -82.5,47.6313972081 -85.0,51.9615242271 -82.5,56.291651246 -85.0,60.6217782649 -90.0,60.6217782649 -87.5,56.291651246 -90.0,51.9615242271 -92.5,56.291651246 -95.0,60.6217782649 -92.5,64.9519052838 -87.5,64.9519052838 -85.0,69.2820323028 -90.0,69.2820323028 -92.5,73.6121593217 -87.5,73.6121593217 -82.5,73.6121593217 -80.0,69.2820323028 -82.5,64.9519052838 -80.0,60.6217782649 -77.5,56.291651246 -75.0,60.6217782649 -77.5,64.9519052838 -72.5,64.9519052838 -70.0,60.6217782649" stroke="#000" stroke-linecap="round" stroke-linejoin="round"/><polyline fill="none" points="-70.0,60.6217782649 -72.5,56.291651246 -70.0,51.9615242271 -67.5,56.291651246 -62.5,56.291651246 -65.0,51.9615242271 -67.5,47.6313972081 -72.5,47.6313972081 -75.0,43.3012701892 -72.5,38.9711431703 -70.0,34.6410161514 -67.5,38.9711431703 -70.0,43.3012701892 -65.0,43.3012701892 -62.5,38.9711431703 -57.5,38.9711431703 -55.0,43.3012701892 -52.5,47.6313972081 -57.5,47.6313972081 -60.0,43.3012701892 -62.5,47.6313972081 -60.0,51.9615242271 -55.0,51.9615242271 -52.5,56.291651246 -57.5,56.291651246 -60.0,60.6217782649 -55.0,60.6217782649 -50.0,60.6217782649 -47.5,56.291651246 -50.0,51.9615242271 -47.5,47.6313972081 -45.0,51.9615242271 -40.0,51.9615242271 -42.5,47.6313972081 -45.0,43.3012701892 -50.0,43.3012701892 -52.5,38.9711431703 -50.0,34.6410161514 -47.5,38.9711431703 -42.5,38.9711431703 -45.0,34.6410161514 -47.5,30.3108891325 -52.5,30.3108891325" stroke="#000" stroke-linecap="round" stroke-linejoin="round"/><polyline fill="none" points="-52.5,30.3108891325 -55.0,34.6410161514 -60.0,34.6410161514 -65.0,34.6410161514 -62.5,30.3108891325 -57.5,30.3108891325 -60.0,25.9807621135 -65.0,25.9807621135 -67.5,30.3108891325 -72.5,30.3108891325 -70.0,25.9807621135 -72.5,21.6506350946 -75.0,25.9807621135 -77.5,30.3108891325 -75.0,34.6410161514 -77.5,38.9711431703 -82.5,38.9711431703 -87.5,38.9711431703 -85.0,34.6410161514 -80.0,34.6410161514 -82.5,30.3108891325 -87.5,30.3108891325 -90.0,25.9807621135 -87.5,21.6506350946 -85.0,17.3205080757 -82.5,21.6506350946 -85.0,25.9807621135 -80.0,25.9807621135 -77.5,21.6506350946 -80.0,17.3205080757 -77.5,12.9903810568 -75.0,17.3205080757 -70.0,17.3205080757 -72.5,12.9903810568 -75.0,8.66025403784 -80.0,8.66025403784 -82.5,12.9903810568 -87.5,12.9903810568 -85.0,8.66025403784 -87.5,4.33012701892 -90.0,8.66025403784 -92.5,12.9903810568 -90.0,17.3205080757" stroke="#000" stroke-linecap="round" stroke-linejoin="round"/><polyline fill="none" points="-90.0,17.3205080757 -92.5,21.6506350946 -97.5,21.6506350946 -95.0,17.3205080757 -97.5,12.9903810568 -100.0,17.3205080757 -102.5,21.6506350946 -100.0,25.9807621135 -95.0,25.9807621135 -92.5,30.3108891325 -90.0,34.6410161514 -95.0,34.6410161514 -97.5,30.3108891325 -100.0,34.6410161514 -97.5,38.9711431703 -100.0,43.3012701892 -105.0,43.3012701892 -102.5,38.9711431703 -105.0,34.6410161514 -107.5,38.9711431703 -110.0,43.3012701892 -107.5,47.6313972081 -110.0,51.9615242271 -115.0,51.9615242271 -120.0,51.9615242271 -117.5,47.6313972081 -112.5,47.6313972081 -115.0,43.3012701892 -120.0,43.3012701892 -122.5,38.9711431703 -120.0,34.6410161514 -117.5,30.3108891325 -115.0,34.6410161514 -117.5,38.9711431703 -112.5,38.9711431703 -110.0,34.6410161514 -112.5,30.3108891325 -110.0,25.9807621135 -107.5,30.3108891325 -102.5,30.3108891325 -105.0,25.9807621135 -107.5,21.6506350946 -112.5,21.6506350946" stroke="#000" stroke-linecap="round" stroke-linejoin="round"/><polyline fill="none" points="-112.5,21.6506350946 -115.0,25.9807621135 -120.0,25.9807621135 -117.5,21.6506350946 -120.0,17.3205080757 -122.5,21.6506350946 -125.0,25.9807621135 -122.5,30.3108891325 -125.0,34.6410161514 -130.0,34.6410161514 -127.5,30.3108891325 -130.0,25.9807621135 -132.5,30.3108891325 -135.0,34.6410161514 -132.5,38.9711431703 -127.5,38.9711431703 -125.0,43.3012701892 -122.5,47.6313972081 -127.5,47.6313972081 -130.0,43.3012701892 -132.5,47.6313972081 -130.0,51.9615242271 -125.0,51.9615242271 -122.5,56.291651246 -127.5,56.291651246 -130.0,60.6217782649 -125.0,60.6217782649 -120.0,60.6217782649 -117.5,56.291651246 -112.5,56.291651246 -110.0,60.6217782649 -107.5,64.9519052838 -112.5,64.9519052838 -115.0,60.6217782649 -117.5,64.9519052838 -115.0,69.2820323028 -110.0,69.2820323028 -107.5,73.6121593217 -105.0,77.9422863406 -110.0,77.9422863406 -112.5,73.6121593217 -115.0,77.9422863406 -112.5,82.2724133595" stroke="#000" stroke-linecap="round" stroke-linejoin="round"/><polyline fill="none" points="-112.5,82.2724133595 -115.0,86.6025403784 -120.0,86.6025403784 -125.0,86.6025403784 -122.5,82.2724133595 -117.5,82.2724133595 -120.0,77.9422863406 -125.0,77.9422863406 -127.5,73.6121593217 -125.0,69.2820323028 -122.5,73.6121593217 -117.5,73.6121593217 -120.0,69.2820323028 -122.5,64.9519052838 -127.5,64.9519052838 -130.0,69.2820323028 -135.0,69.2820323028 -132.5,64.9519052838 -135.0,60.6217782649 -137.5,64.9519052838 -140.0,69.2820323028 -137.5,73.6121593217 -132.5,73.6121593217 -130.0,77.9422863406 -127.5,82.2724133595 -132.5,82.2724133595 -135.0,77.9422863406 -137.5,82.2724133595 -135.0,86.6025403784 -130.0,86.6025403784 -127.5,90.9326673974 -132.5,90.9326673974 -135.0,95.2627944163 -130.0,95.2627944163 -125.0,95.2627944163 -122.5,90.9326673974 -117.5,90.9326673974 -115.0,95.2627944163 -112.5,99.5929214352 -117.5,99.5929214352 -120.0,95.2627944163 -122.5,99.5929214352 -120.0,103.923048454" stroke="#000" stroke-linecap="round" stroke-linejoin="round"/><polyline fill="none" points="-120.0,103.923048454 -122.5,108.253175473 -127.5,108.253175473 -132.5,108.253175473 -130.0,103.923048454 -125.0,103.923048454 -127.5,99.5929214352 -132.5,99.5929214352 -135.0,103.923048454 -140.0,103.923048454 -137.5,99.5929214352 -140.0,95.2627944163 -142.5,99.5929214352 -145.0,103.923048454 -142.5,108.253175473 -137.5,108.253175473 -135.0,112.583302492 -140.0,112.583302492 -142.5,116.913429511 -137.5,116.913429511 -132.5,116.913429511 -130.0,112.583302492 -125.0,112.583302492 -122.5,116.913429511 -127.5,116.913429511 -130.0,121.24355653 -125.0,121.24355653 -120.0,121.24355653 -117.5,116.913429511 -120.0,112.583302492 -117.5,108.253175473 -115.0,103.923048454 -112.5,108.253175473 -115.0,112.583302492 -110.0,112.583302492 -107.5,108.253175473 -102.5,108.253175473 -100.0,112.583302492 -105.0,112.583302492 -107.5,116.913429511 -102.5,116.913429511 -97.5,116.913429511 -95.0,112.583302492" stroke="#000" stroke-linecap="round" stroke-linejoin="round"/><polyline fill="none" points="-95.0,112.583302492 -90.0,112.583302492 -87.5,116.913429511 -85.0,121.24355653 -90.0,121.24355653 -92.5,116.913429511 -95.0,121.24355653 -92.5,125.573683549 -87.5,125.573683549 -85.0,129.903810568 -82.5,134.233937587 -87.5,134.233937587 -90.0,129.903810568 -92.5,134.233937587 -90.0,138.564064606 -92.5,142.894191624 -97.5,142.894191624 -102.5,142.894191624 -100.0,138.564064606 -95.0,138.564064606 -97.5,134.233937587 -102.5,134.233937587 -105.0,129.903810568 -102.5,125.573683549 -100.0,129.903810568 -95.0,129.903810568 -97.5,125.573683549 -100.0,121.24355653 -105.0,121.24355653 -107.5,125.573683549 -112.5,125.573683549 -110.0,121.24355653 -112.5,116.913429511 -115.0,121.24355653 -117.5,125.573683549 -115.0,129.903810568 -110.0,129.903810568 -107.5,134.233937587 -105.0,138.564064606 -110.0,138.564064606 -112.5,134.233937587 -115.0,138.564064606 -112.5,142.894191624" stroke="#000" stroke-linecap="round" stroke-linejoin="round"/><polyline fill="none" points="-112.5,142.894191624 -115.0,147.224318643 -120.0,147.224318643 -117.5,142.894191624 -120.0,138.564064606 -122.5,142.894191624 -125.0,147.224318643 -122.5,151.554445662 -125.0,155.884572681 -130.0,155.884572681 -135.0,155.884572681 -132.5,151.554445662 -127.5,151.554445662 -130.0,147.224318643 -135.0,147.224318643 -137.5,151.554445662 -142.5,151.554445662 -147.5,151.554445662 -145.0,147.224318643 -140.0,147.224318643 -142.5,142.894191624 -147.5,142.894191624 -150.0,138.564064606 -147.5,134.233937587 -145.0,129.903810568 -142.5,134.233937587 -145.0,138.564064606 -140.0,138.564064606 -137.5,134.233937587 -132.5,134.233937587 -130.0,138.564064606 -135.0,138.564064606 -137.5,142.894191624 -132.5,142.894191624 -127.5,142.894191624 -125.0,138.564064606 -127.5,134.233937587 -125.0,129.903810568 -122.5,134.233937587 -117.5,134.233937587 -120.0,129.903810568 -122.5,125.573683549 -127.5,125.573683549" stroke="#000" stroke-linecap="round" stroke-linejoin="round"/><polyline fill="none" points="-127.5,125.573683549 -130.0,129.903810568 -135.0,129.903810568 -140.0,129.903810568 -137.5,125.573683549 -132.5,125.573683549 -135.0,121.24355653 -140.0,121.24355653 -142.5,125.573683549 -147.5,125.573683549 -145.0,121.24355653 -147.5,116.913429511 -150.0,121.24355653 -152.5,125.573683549 -150.0,129.903810568 -152.5,134.233937587 -157.5,134.233937587 -162.5,134.233937587 -160.0,129.903810568 -155.0,129.903810568 -157.5,125.573683549 -162.5,125.573683549 -165.0,121.24355653 -162.5,116.913429511 -160.0,112.583302492 -157.5,116.913429511 -160.0,121.24355653 -155.0,121.24355653 -152.5,116.913429511 -155.0,112.583302492 -152.5,108.253175473 -150.0,112.583302492 -145.0,112.583302492 -147.5,108.253175473 -150.0,103.923048454 -155.0,103.923048454 -157.5,108.253175473 -162.5,108.253175473 -160.0,103.923048454 -162.5,99.5929214352 -165.0,103.923048454 -167.5,108.253175473 -165.0,112.583302492" stroke="#000" stroke-linecap="round" stroke-linejoin="round"/><polyline fill="none" points="-165.0,112.583302492 -167.5,116.913429511 -172.5,116.913429511 -170.0,112.583302492 -172.5,108.253175473 -175.0,112.583302492 -177.5,116.913429511 -175.0,121.24355653 -170.0,121.24355653 -167.5,125.573683549 -165.0,129.903810568 -170.0,129.903810568 -172.5,125.573683549 -175.0,129.903810568 -172.5,134.233937587 -167.5,134.233937587 -165.0,138.564064606 -170.0,138.564064606 -172.5,142.894191624 -167.5,142.894191624 -162.5,142.894191624 -160.0,138.564064606 -155.0,138.564064606 -152.5,142.894191624 -150.0,147.224318643 -155.0,147.224318643 -157.5,142.894191624 -160.0,147.224318643 -157.5,151.554445662 -160.0,155.884572681 -165.0,155.884572681 -170.0,155.884572681 -167.5,151.554445662 -162.5,151.554445662 -165.0,147.224318643 -170.0,147.224318643 -172.5,151.554445662 -177.5,151.554445662 -175.0,147.224318643 -177.5,142.894191624 -180.0,147.224318643 -182.5,151.554445662 -180.0,155.884572681" stroke="#000" stroke-linecap="round" stroke-linejoin="round"/><polyline fill="none" points="-180.0,155.884572681 -175.0,155.884572681 -172.5,160.2146997 -177.5,160.2146997 -180.0,164.544826719 -175.0,164.544826719 -170.0,164.544826719 -167.5,160.2146997 -162.5,160.2146997 -160.0,164.544826719 -165.0,164.544826719 -167.5,168.874953738 -162.5,168.874953738 -157.5,168.874953738 -155.0,164.544826719 -157.5,160.2146997 -155.0,155.884572681 -152.5,151.554445662 -150.0,155.884572681 -152.5,160.2146997 -147.5,160.2146997 -145.0,155.884572681 -140.0,155.884572681 -137.5,160.2146997 -142.5,160.2146997 -145.0,164.544826719 -140.0,164.544826719 -135.0,164.544826719 -132.5,160.2146997 -127.5,160.2146997 -125.0,164.544826719 -122.5,168.874953738 -127.5,168.874953738 -130.0,164.544826719 -132.5,168.874953738 -130.0,173.205080757 -132.5,177.535207776 -137.5,177.535207776 -142.5,177.535207776 -140.0,173.205080757 -135.0,173.205080757 -137.5,168.874953738 -142.5,168.874953738" stroke="#000" stroke-linecap="round" stroke-linejoin="round"/><polyline fill="none" points="-142.5,168.874953738 -145.0,173.205080757 -150.0,173.205080757 -147.5,168.874953738 -150.0,164.544826719 -152.5,168.874953738 -155.0,173.205080757 -152.5,177.535207776 -147.5,177.535207776 -145.0,181.865334795 -150.0,181.865334795 -152.5,186.195461814 -147.5,186.195461814 -142.5,186.195461814 -140.0,181.865334795 -135.0,181.865334795 -132.5,186.195461814 -137.5,186.195461814 -140.0,190.525588833 -135.0,190.525588833 -130.0,190.525588833 -127.5,186.195461814 -130.0,181.865334795 -127.5,177.535207776 -125.0,173.205080757 -122.5,177.535207776 -125.0,181.865334795 -120.0,181.865334795 -117.5,177.535207776 -120.0,173.205080757 -117.5,168.874953738 -115.0,173.205080757 -110.0,173.205080757 -112.5,168.874953738 -115.0,164.544826719 -120.0,164.544826719 -122.5,160.2146997 -120.0,155.884572681 -117.5,151.554445662 -115.0,155.884572681 -117.5,160.2146997 -112.5,160.2146997 -110.0,155.884572681" stroke="#000" stroke-linecap="round" stroke-linejoin="round"/><polyline fill="none" points="-110.0,155.884572681 -112.5,151.554445662 -110.0,147.224318643 -107.5,142.894191624 -105.0,147.224318643 -107.5,151.554445662 -102.5,151.554445662 -100.0,147.224318643 -95.0,147.224318643 -92.5,151.554445662 -90.0,155.884572681 -95.0,155.884572681 -97.5,151.554445662 -100.0,155.884572681 -97.5,160.2146997 -100.0,164.544826719 -105.0,164.544826719 -102.5,160.2146997 -105.0,155.884572681 -107.5,160.2146997 -110.0,164.544826719 -107.5,168.874953738 -102.5,168.874953738 -100.0,173.205080757 -105.0,173.205080757 -107.5,177.535207776 -102.5,177.535207776 -97.5,177.535207776 -95.0,173.205080757 -97.5,168.874953738 -95.0,164.544826719 -92.5,160.2146997 -90.0,164.544826719 -92.5,168.874953738 -87.5,168.874953738 -85.0,164.544826719 -80.0,164.544826719 -77.5,168.874953738 -82.5,168.874953738 -85.0,173.205080757 -80.0,173.205080757 -75.0,173.205080757 -72.5,168.874953738" stroke="#000" stroke-linecap="round" stroke-linejoin="round"/><polyline fill="none" points="-72.5,168.874953738 -67.5,168.874953738 -65.0,173.205080757 -62.5,177.535207776 -67.5,177.535207776 -70.0,173.205080757 -72.5,177.535207776 -70.0,181.865334795 -72.5,186.195461814 -77.5,186.195461814 -82.5,186.195461814 -80.0,181.865334795 -75.0,181.865334795 -77.5,177.535207776 -82.5,177.535207776 -85.0,181.865334795 -90.0,181.865334795 -87.5,177.535207776 -90.0,173.205080757 -92.5,177.535207776 -95.0,181.865334795 -92.5,186.195461814 -87.5,186.195461814 -85.0,190.525588833 -90.0,190.525588833 -92.5,194.855715852 -87.5,194.855715852 -82.5,194.855715852 -80.0,190.525588833 -75.0,190.525588833 -72.5,194.855715852 -77.5,194.855715852 -80.0,199.18584287 -75.0,199.18584287 -70.0,199.18584287 -67.5,194.855715852 -70.0,190.525588833 -67.5,186.195461814 -65.0,181.865334795 -62.5,186.195461814 -65.0,190.525588833 -60.0,190.525588833 -57.5,186.195461814" stroke="#000" stroke-linecap="round" stroke-linejoin="round"/><polyline fill="none" points="-57.5,186.195461814 -52.5,186.195461814 -50.0,190.525588833 -55.0,190.525588833 -57.5,194.855715852 -52.5,194.855715852 -47.5,194.855715852 -45.0,190.525588833 -40.0,190.525588833 -37.5,194.855715852 -35.0,199.18584287 -40.0,199.18584287 -42.5,194.855715852 -45.0,199.18584287 -42.5,203.515969889 -37.5,203.515969889 -35.0,207.846096908 -32.5,212.176223927 -37.5,212.176223927 -40.0,207.846096908 -42.5,212.176223927 -40.0,216.506350946 -42.5,220.836477965 -47.5,220.836477965 -52.5,220.836477965 -50.0,216.506350946 -45.0,216.506350946 -47.5,212.176223927 -52.5,212.176223927 -55.0,207.846096908 -52.5,203.515969889 -50.0,207.846096908 -45.0,207.846096908 -47.5,203.515969889 -50.0,199.18584287 -55.0,199.18584287 -57.5,203.515969889 -62.5,203.515969889 -60.0,199.18584287 -62.5,194.855715852 -65.0,199.18584287 -67.5,203.515969889 -65.0,207.846096908" stroke="#000" stroke-linecap="round" stroke-linejoin="round"/><polyline fill="none" points="-65.0,207.846096908 -60.0,207.846096908 -57.5,212.176223927 -55.0,216.506350946 -60.0,216.506350946 -62.5,212.176223927 -65.0,216.506350946 -62.5,220.836477965 -65.0,225.166604984 -70.0,225.166604984 -67.5,220.836477965 -70.0,216.506350946 -72.5,220.836477965 -75.0,225.166604984 -72.5,229.496732003 -75.0,233.826859022 -80.0,233.826859022 -85.0,233.826859022 -82.5,229.496732003 -77.5,229.496732003 -80.0,225.166604984 -85.0,225.166604984 -87.5,229.496732003 -92.5,229.496732003 -97.5,229.496732003 -95.0,225.166604984 -90.0,225.166604984 -92.5,220.836477965 -97.5,220.836477965 -100.0,216.506350946 -97.5,212.176223927 -95.0,207.846096908 -92.5,212.176223927 -95.0,216.506350946 -90.0,216.506350946 -87.5,212.176223927 -82.5,212.176223927 -80.0,216.506350946 -85.0,216.506350946 -87.5,220.836477965 -82.5,220.836477965 -77.5,220.836477965 -75.0,216.506350946" stroke="#000" stroke-linecap="round" stroke-linejoin="round"/><polyline fill="none" points="-75.0,216.506350946 -77.5,212.176223927 -75.0,207.846096908 -72.5,212.176223927 -67.5,212.176223927 -70.0,207.846096908 -72.5,203.515969889 -77.5,203.515969889 -80.0,207.846096908 -85.0,207.846096908 -90.0,207.846096908 -87.5,203.515969889 -82.5,203.515969889 -85.0,199.18584287 -90.0,199.18584287 -92.5,203.515969889 -97.5,203.515969889 -95.0,199.18584287 -97.5,194.855715852 -100.0,199.18584287 -102.5,203.515969889 -100.0,207.846096908 -102.5,212.176223927 -107.5,212.176223927 -112.5,212.176223927 -110.0,207.846096908 -105.0,207.846096908 -107.5,203.515969889 -112.5,203.515969889 -115.0,199.18584287 -112.5,194.855715852 -110.0,190.525588833 -107.5,194.855715852 -110.0,199.18584287 -105.0,199.18584287 -102.5,194.855715852 -105.0,190.525588833 -102.5,186.195461814 -100.0,190.525588833 -95.0,190.525588833 -97.5,186.195461814 -100.0,181.865334795 -105.0,181.865334795" stroke="#000" stroke-linecap="round" stroke-linejoin="round"/><polyline fill="none" points="-105.0,181.865334795 -107.5,186.195461814 -112.5,186.195461814 -110.0,181.865334795 -112.5,177.535207776 -115.0,181.865334795 -117.5,186.195461814 -115.0,190.525588833 -117.5,194.855715852 -122.5,194.855715852 -120.0,190.525588833 -122.5,186.195461814 -125.0,190.525588833 -127.5,194.855715852 -125.0,199.18584287 -120.0,199.18584287 -117.5,203.515969889 -115.0,207.846096908 -120.0,207.846096908 -122.5,203.515969889 -125.0,207.846096908 -122.5,212.176223927 -117.5,212.176223927 -115.0,216.506350946 -120.0,216.506350946 -122.5,220.836477965 -117.5,220.836477965 -112.5,220.836477965 -110.0,216.506350946 -105.0,216.506350946 -102.5,220.836477965 -100.0,225.166604984 -105.0,225.166604984 -107.5,220.836477965 -110.0,225.166604984 -107.5,229.496732003 -110.0,233.826859022 -115.0,233.826859022 -120.0,233.826859022 -117.5,229.496732003 -112.5,229.496732003 -115.0,225.166604984 -120.0,225.166604984" stroke="#000" stroke-linecap="round" stroke-linejoin="round"/><polyline fill="none" points="-120.0,225.166604984 -122.5,229.496732003 -127.5,229.496732003 -125.0,225.166604984 -127.5,220.836477965 -130.0,225.166604984 -132.5,229.496732003 -130.0,233.826859022 -125.0,233.826859022 -122.5,238.156986041 -127.5,238.156986041 -130.0,242.48711306 -125.0,242.48711306 -120.0,242.48711306 -117.5,238.156986041 -112.5,238.156986041 -110.0,242.48711306 -115.0,242.48711306 -117.5,246.817240079 -112.5,246.817240079 -107.5,246.817240079 -105.0,242.48711306 -107.5,238.156986041 -105.0,233.826859022 -102.5,229.496732003 -100.0,233.826859022 -102.5,238.156986041 -97.5,238.156986041 -95.0,233.826859022 -90.0,233.826859022 -87.5,238.156986041 -92.5,238.156986041 -95.0,242.48711306 -90.0,242.48711306 -85.0,242.48711306 -82.5,238.156986041 -77.5,238.156986041 -75.0,242.48711306 -72.5,246.817240079 -77.5,246.817240079 -80.0,242.48711306 -82.5,246.817240079 -80.0,251.147367097" stroke="#000" stroke-linecap="round" stroke-linejoin="round"/><polyline fill="none" points="-80.0,251.147367097 -82.5,255.477494116 -87.5,255.477494116 -92.5,255.477494116 -90.0,251.147367097 -85.0,251.147367097 -87.5,246.817240079 -92.5,246.817240079 -95.0,251.147367097 -100.0,251.147367097 -97.5,246.817240079 -100.0,242.48711306 -102.5,246.817240079 -105.0,251.147367097 -102.5,255.477494116 -97.5,255.477494116 -95.0,259.807621135 -100.0,259.807621135 -102.5,264.137748154 -97.5,264.137748154 -92.5,264.137748154 -90.0,259.807621135 -85.0,259.807621135 -82.5,264.137748154 -87.5,264.137748154 -90.0,268.467875173 -85.0,268.467875173 -80.0,268.467875173 -77.5,264.137748154 -80.0,259.807621135 -77.5,255.477494116 -75.0,251.147367097 -72.5,255.477494116 -75.0,259.807621135 -70.0,259.807621135 -67.5,255.477494116 -70.0,251.147367097 -67.5,246.817240079 -65.0,251.147367097 -60.0,251.147367097 -62.5,246.817240079 -65.0,242.48711306 -70.0,242.48711306" stroke="#000" stroke-linecap="round" stroke-linejoin="round"/><polyline fill="none" points="-70.0,242.48711306 -72.5,238.156986041 -70.0,233.826859022 -67.5,229.496732003 -65.0,233.826859022 -67.5,238.156986041 -62.5,238.156986041 -60.0,233.826859022 -62.5,229.496732003 -60.0,225.166604984 -57.5,220.836477965 -55.0,225.166604984 -57.5,229.496732003 -52.5,229.496732003 -50.0,225.166604984 -45.0,225.166604984 -42.5,229.496732003 -40.0,233.826859022 -45.0,233.826859022 -47.5,229.496732003 -50.0,233.826859022 -47.5,238.156986041 -50.0,242.48711306 -55.0,242.48711306 -52.5,238.156986041 -55.0,233.826859022 -57.5,238.156986041 -60.0,242.48711306 -57.5,246.817240079 -52.5,246.817240079 -50.0,251.147367097 -55.0,251.147367097 -57.5,255.477494116 -52.5,255.477494116 -47.5,255.477494116 -45.0,251.147367097 -47.5,246.817240079 -45.0,242.48711306 -42.5,238.156986041 -40.0,242.48711306 -42.5,246.817240079 -37.5,246.817240079 -35.0,242.48711306" stroke="#000" stroke-linecap="round" stroke-linejoin="round"/><polyline fill="none" points="-35.0,242.48711306 -37.5,238.156986041 -35.0,233.826859022 -32.5,238.156986041 -27.5,238.156986041 -30.0,233.826859022 -32.5,229.496732003 -37.5,229.496732003 -40.0,225.166604984 -37.5,220.836477965 -35.0,216.506350946 -32.5,220.836477965 -35.0,225.166604984 -30.0,225.166604984 -27.5,220.836477965 -22.5,220.836477965 -20.0,225.166604984 -17.5,229.496732003 -22.5,229.496732003 -25.0,225.166604984 -27.5,229.496732003 -25.0,233.826859022 -20.0,233.826859022 -17.5,238.156986041 -22.5,238.156986041 -25.0,242.48711306 -20.0,242.48711306 -15.0,242.48711306 -12.5,238.156986041 -15.0,233.826859022 -12.5,229.496732003 -10.0,233.826859022 -5.0,233.826859022 -7.5,229.496732003 -10.0,225.166604984 -15.0,225.166604984 -17.5,220.836477965 -15.0,216.506350946 -12.5,220.836477965 -7.5,220.836477965 -10.0,216.506350946 -12.5,212.176223927 -17.5,212.176223927" stroke="#000" stroke-linecap="round" stroke-linejoin="round"/><polyline fill="none" points="-17.5,212.176223927 -20.0,216.506350946 -25.0,216.506350946 -30.0,216.506350946 -27.5,212.176223927 -22.5,212.176223927 -25.0,207.846096908 -30.0,207.846096908 -32.5,203.515969889 -30.0,199.18584287 -27.5,203.515969889 -22.5,203.515969889 -25.0,199.18584287 -27.5,194.855715852 -32.5,194.855715852 -35.0,190.525588833 -32.5,186.195461814 -30.0,181.865334795 -27.5,186.195461814 -30.0,190.525588833 -25.0,190.525588833 -22.5,186.195461814 -25.0,181.865334795 -22.5,177.535207776 -20.0,173.205080757 -17.5,177.535207776 -20.0,181.865334795 -15.0,181.865334795 -12.5,177.535207776 -7.5,177.535207776 -5.0,181.865334795 -2.5,186.195461814 -7.5,186.195461814 -10.0,181.865334795 -12.5,186.195461814 -10.0,190.525588833 -12.5,194.855715852 -17.5,194.855715852 -15.0,190.525588833 -17.5,186.195461814 -20.0,190.525588833 -22.5,194.855715852 -20.0,199.18584287" stroke="#000" stroke-linecap="round" stroke-linejoin="round"/><polyline fill="none" points="-20.0,199.18584287 -15.0,199.18584287 -12.5,203.515969889 -17.5,203.515969889 -20.0,207.846096908 -15.0,207.846096908 -10.0,207.846096908 -7.5,203.515969889 -10.0,199.18584287 -7.5,194.855715852 -5.0,190.525588833 -2.5,194.855715852 -5.0,199.18584287 4.87609952415e-13,199.18584287 2.5,194.855715852 4.58300064565e-13,190.525588833 2.5,186.195461814 5.0,190.525588833 10.0,190.525588833 7.5,186.195461814 5.0,181.865334795 4.30766533555e-13,181.865334795 -2.5,177.535207776 4.01456645704e-13,173.205080757 2.5,168.874953738 5.0,173.205080757 2.5,177.535207776 7.5,177.535207776 10.0,173.205080757 7.5,168.874953738 10.0,164.544826719 12.5,160.2146997 15.0,164.544826719 12.5,168.874953738 17.5,168.874953738 20.0,164.544826719 25.0,164.544826719 27.5,168.874953738 30.0,173.205080757 25.0,173.205080757 22.5,168.874953738 20.0,173.205080757 22.5,177.535207776" stroke="#000" stroke-linecap="round" stroke-linejoin="round"/><polyline fill="none" points="22.5,177.535207776 20.0,181.865334795 15.0,181.865334795 17.5,177.535207776 15.0,173.205080757 12.5,177.535207776 10.0,181.865334795 12.5,186.195461814 17.5,186.195461814 20.0,190.525588833 15.0,190.525588833 12.5,194.855715852 17.5,194.855715852 22.5,194.855715852 25.0,190.525588833 22.5,186.195461814 25.0,181.865334795 27.5,177.535207776 30.0,181.865334795 27.5,186.195461814 32.5,186.195461814 35.0,181.865334795 40.0,181.865334795 42.5,186.195461814 37.5,186.195461814 35.0,190.525588833 40.0,190.525588833 45.0,190.525588833 47.5,186.195461814 52.5,186.195461814 55.0,190.525588833 57.5,194.855715852 52.5,194.855715852 50.0,190.525588833 47.5,194.855715852 50.0,199.18584287 55.0,199.18584287 57.5,203.515969889 60.0,207.846096908 55.0,207.846096908 52.5,203.515969889 50.0,207.846096908 52.5,212.176223927" stroke="#000" stroke-linecap="round" stroke-linejoin="round"/><polyline fill="none" points="52.5,212.176223927 50.0,216.506350946 45.0,216.506350946 40.0,216.506350946 42.5,212.176223927 47.5,212.176223927 45.0,207.846096908 40.0,207.846096908 37.5,203.515969889 40.0,199.18584287 42.5,203.515969889 47.5,203.515969889 45.0,199.18584287 42.5,194.855715852 37.5,194.855715852 35.0,199.18584287 30.0,199.18584287 32.5,194.855715852 30.0,190.525588833 27.5,194.855715852 25.0,199.18584287 27.5,203.515969889 32.5,203.515969889 35.0,207.846096908 37.5,212.176223927 32.5,212.176223927 30.0,207.846096908 27.5,212.176223927 30.0,216.506350946 27.5,220.836477965 22.5,220.836477965 25.0,216.506350946 22.5,212.176223927 20.0,216.506350946 17.5,220.836477965 20.0,225.166604984 17.5,229.496732003 12.5,229.496732003 7.5,229.496732003 10.0,225.166604984 15.0,225.166604984 12.5,220.836477965 7.5,220.836477965" stroke="#000" stroke-linecap="round" stroke-linejoin="round"/><polyline fill="none" points="7.5,220.836477965 5.0,216.506350946 7.5,212.176223927 10.0,207.846096908 12.5,212.176223927 10.0,216.506350946 15.0,216.506350946 17.5,212.176223927 15.0,207.846096908 17.5,203.515969889 20.0,207.846096908 25.0,207.846096908 22.5,203.515969889 20.0,199.18584287 15.0,199.18584287 12.5,203.515969889 7.5,203.515969889 10.0,199.18584287 7.5,194.855715852 5.0,199.18584287 2.5,203.515969889 5.0,207.846096908 2.5,212.176223927 -2.5,212.176223927 5.09814412908e-13,207.846096908 -2.5,203.515969889 -5.0,207.846096908 -7.5,212.176223927 -5.0,216.506350946 5.40900657597e-13,216.506350946 2.5,220.836477965 5.0,225.166604984 5.71986902287e-13,225.166604984 -2.5,220.836477965 -5.0,225.166604984 -2.5,229.496732003 2.5,229.496732003 5.0,233.826859022 6.02184968557e-13,233.826859022 -2.5,238.156986041 2.5,238.156986041 7.5,238.156986041 10.0,233.826859022" stroke="#000" stroke-linecap="round" stroke-linejoin="round"/><polyline fill="none" points="10.0,233.826859022 15.0,233.826859022 17.5,238.156986041 20.0,242.48711306 15.0,242.48711306 12.5,238.156986041 10.0,242.48711306 12.5,246.817240079 10.0,251.147367097 5.0,251.147367097 6.67910171614e-13,251.147367097 2.5,246.817240079 7.5,246.817240079 5.0,242.48711306 6.31494856407e-13,242.48711306 -2.5,246.817240079 -7.5,246.817240079 -5.0,242.48711306 -7.5,238.156986041 -10.0,242.48711306 -12.5,246.817240079 -10.0,251.147367097 -5.0,251.147367097 -2.5,255.477494116 -7.5,255.477494116 -10.0,259.807621135 -5.0,259.807621135 6.91002810527e-13,259.807621135 2.5,255.477494116 7.5,255.477494116 10.0,259.807621135 5.0,259.807621135 2.5,264.137748154 7.5,264.137748154 12.5,264.137748154 15.0,259.807621135 12.5,255.477494116 15.0,251.147367097 17.5,246.817240079 20.0,251.147367097 17.5,255.477494116 22.5,255.477494116 25.0,251.147367097" stroke="#000" stroke-linecap="round" stroke-linejoin="round"/><polyline fill="none" points="25.0,251.147367097 22.5,246.817240079 25.0,242.48711306 27.5,246.817240079 32.5,246.817240079 30.0,242.48711306 27.5,238.156986041 22.5,238.156986041 20.0,233.826859022 22.5,229.496732003 25.0,225.166604984 27.5,229.496732003 25.0,233.826859022 30.0,233.826859022 32.5,229.496732003 30.0,225.166604984 32.5,220.836477965 35.0,216.506350946 37.5,220.836477965 35.0,225.166604984 40.0,225.166604984 42.5,220.836477965 47.5,220.836477965 50.0,225.166604984 52.5,229.496732003 47.5,229.496732003 45.0,225.166604984 42.5,229.496732003 45.0,233.826859022 42.5,238.156986041 37.5,238.156986041 40.0,233.826859022 37.5,229.496732003 35.0,233.826859022 32.5,238.156986041 35.0,242.48711306 40.0,242.48711306 42.5,246.817240079 37.5,246.817240079 35.0,251.147367097 40.0,251.147367097 45.0,251.147367097 47.5,246.817240079" stroke="#000" stroke-linecap="round" stroke-linejoin="round"/><polyline fill="none" points="47.5,246.817240079 45.0,242.48711306 47.5,238.156986041 50.0,233.826859022 52.5,238.156986041 50.0,242.48711306 55.0,242.48711306 57.5,238.156986041" stroke="#000" stroke-linecap="round" stroke-linejoin="round"/></svg>